<?xml version="1.0" encoding="UTF-8" standalone="no"?>
<!DOCTYPE svg PUBLIC "-//W3C//DTD SVG 1.1//EN" "http://www.w3.org/Graphics/SVG/1.1/DTD/svg11.dtd">
<svg xmlns="http://www.w3.org/2000/svg" version="1.1" viewBox="0 0 50 55">
<g stroke-width="2.00" fill="none" stroke-linecap="butt">
<path stroke="#0f5aee" vector-effect="non-scaling-stroke" d="
  M 11.81 0.00
  Q 14.84 1.16 14.41 4.26
  Q 13.82 8.63 15.38 11.86"
/>
<path stroke="#072972" vector-effect="non-scaling-stroke" d="
  M 15.38 11.86
  C 11.70 19.16 17.93 20.05 20.00 25.23
  Q 21.31 28.49 23.28 31.37
  A 1.00 0.98 -54.2 0 1 23.41 32.22
  L 22.46 35.37
  Q 21.95 37.07 20.76 35.76
  Q 15.24 29.65 13.71 28.79
  C 9.26 26.28 4.84 31.57 7.25 35.71"
/>
<path stroke="#0f5aee" vector-effect="non-scaling-stroke" d="
  M 7.25 35.71
  Q 2.82 35.90 1.69 39.68
  Q -0.53 47.14 3.11 54.95"
/>
<path stroke="#0f5aee" vector-effect="non-scaling-stroke" d="
  M 50.00 21.31
  C 49.17 17.26 49.90 12.58 49.55 8.03
  C 49.28 4.50 46.18 3.45 43.48 5.65
  Q 41.84 6.99 40.50 8.15"
/>
<path stroke="#08327c" vector-effect="non-scaling-stroke" d="
  M 40.50 8.15
  C 31.43 4.54 21.86 3.29 15.38 11.86"
/>
<path stroke="#0f5aee" vector-effect="non-scaling-stroke" d="
  M 50.00 26.06
  L 49.56 29.37
  Q 49.31 31.20 47.91 30.00
  Q 46.03 28.37 45.01 28.22
  Q 41.75 27.74 38.53 26.83
  A 1.00 0.99 -88.5 0 1 37.83 26.09
  Q 37.66 25.32 37.00 24.96"
/>
<path stroke="#072972" vector-effect="non-scaling-stroke" d="
  M 37.00 24.96
  Q 49.24 18.88 40.50 8.15"
/>
<path stroke="#08327c" vector-effect="non-scaling-stroke" d="
  M 37.00 24.96
  L 30.04 25.24
  A 0.95 0.95 0.0 0 0 29.38 25.53
  L 25.84 29.03
  Q 24.20 30.65 26.51 30.74
  C 30.23 30.88 34.98 34.24 33.18 38.44
  Q 32.93 39.02 32.64 39.59
  A 0.99 0.99 0.0 0 0 33.19 40.98
  Q 37.95 42.71 39.11 48.19
  A 1.00 0.99 -8.7 0 1 38.22 49.39
  Q 26.99 50.42 15.71 49.53
  A 1.01 1.00 2.8 0 1 14.79 48.52
  C 14.86 41.88 11.67 39.78 7.25 35.71"
/>
<path stroke="#808080" vector-effect="non-scaling-stroke" d="
  M 20.92 21.11
  A 1.01 1.00 -88.8 0 1 21.53 21.75
  L 23.21 27.03
  Q 23.76 28.74 24.92 27.37
  L 28.49 23.21
  A 1.00 0.98 23.1 0 1 29.36 22.87
  C 33.17 23.27 38.83 23.22 40.84 19.34
  C 42.90 15.36 41.19 10.65 36.75 9.23
  Q 30.59 7.27 23.24 8.77
  C 17.24 10.00 13.71 18.48 20.92 21.11"
/>
<path stroke="#774641" vector-effect="non-scaling-stroke" d="
  M 29.90 41.66
  C 23.23 40.70 19.43 36.93 14.30 32.24
  C 12.79 30.87 8.96 28.87 9.08 32.73
  C 9.23 37.61 17.62 39.80 17.79 46.03
  A 1.00 1.00 0.0 0 0 18.78 47.00
  L 35.26 47.13
  Q 37.59 47.15 35.99 45.45
  C 34.18 43.52 32.74 42.08 29.90 41.66"
/>
<path stroke="#808080" vector-effect="non-scaling-stroke" d="
  M 30.3204 38.2762
  A 3.22 2.83 41.8 0 0 29.8063 34.0203
  A 3.22 2.83 41.8 0 0 25.5196 33.9838
  A 3.22 2.83 41.8 0 0 26.0337 38.2397
  A 3.22 2.83 41.8 0 0 30.3204 38.2762"
/>
</g>
<path fill="#0e51e4" d="
  M 0.00 0.00
  L 11.81 0.00
  Q 14.84 1.16 14.41 4.26
  Q 13.82 8.63 15.38 11.86
  C 11.70 19.16 17.93 20.05 20.00 25.23
  Q 21.31 28.49 23.28 31.37
  A 1.00 0.98 -54.2 0 1 23.41 32.22
  L 22.46 35.37
  Q 21.95 37.07 20.76 35.76
  Q 15.24 29.65 13.71 28.79
  C 9.26 26.28 4.84 31.57 7.25 35.71
  Q 2.82 35.90 1.69 39.68
  Q -0.53 47.14 3.11 54.95
  L 0.00 55.00
  L 0.00 0.00
  Z"
/>
<path fill="#1063f7" d="
  M 11.81 0.00
  L 50.00 0.00
  L 50.00 21.31
  C 49.17 17.26 49.90 12.58 49.55 8.03
  C 49.28 4.50 46.18 3.45 43.48 5.65
  Q 41.84 6.99 40.50 8.15
  C 31.43 4.54 21.86 3.29 15.38 11.86
  Q 13.82 8.63 14.41 4.26
  Q 14.84 1.16 11.81 0.00
  Z"
/>
<path fill="#0e51e4" d="
  M 50.00 21.31
  L 50.00 26.06
  L 49.56 29.37
  Q 49.31 31.20 47.91 30.00
  Q 46.03 28.37 45.01 28.22
  Q 41.75 27.74 38.53 26.83
  A 1.00 0.99 -88.5 0 1 37.83 26.09
  Q 37.66 25.32 37.00 24.96
  Q 49.24 18.88 40.50 8.15
  Q 41.84 6.99 43.48 5.65
  C 46.18 3.45 49.28 4.50 49.55 8.03
  C 49.90 12.58 49.17 17.26 50.00 21.31
  Z"
/>
<path fill="#000000" d="
  M 40.50 8.15
  Q 49.24 18.88 37.00 24.96
  L 30.04 25.24
  A 0.95 0.95 0.0 0 0 29.38 25.53
  L 25.84 29.03
  Q 24.20 30.65 26.51 30.74
  C 30.23 30.88 34.98 34.24 33.18 38.44
  Q 32.93 39.02 32.64 39.59
  A 0.99 0.99 0.0 0 0 33.19 40.98
  Q 37.95 42.71 39.11 48.19
  A 1.00 0.99 -8.7 0 1 38.22 49.39
  Q 26.99 50.42 15.71 49.53
  A 1.01 1.00 2.8 0 1 14.79 48.52
  C 14.86 41.88 11.67 39.78 7.25 35.71
  C 4.84 31.57 9.26 26.28 13.71 28.79
  Q 15.24 29.65 20.76 35.76
  Q 21.95 37.07 22.46 35.37
  L 23.41 32.22
  A 1.00 0.98 -54.2 0 0 23.28 31.37
  Q 21.31 28.49 20.00 25.23
  C 17.93 20.05 11.70 19.16 15.38 11.86
  C 21.86 3.29 31.43 4.54 40.50 8.15
  Z
  M 20.92 21.11
  A 1.01 1.00 -88.8 0 1 21.53 21.75
  L 23.21 27.03
  Q 23.76 28.74 24.92 27.37
  L 28.49 23.21
  A 1.00 0.98 23.1 0 1 29.36 22.87
  C 33.17 23.27 38.83 23.22 40.84 19.34
  C 42.90 15.36 41.19 10.65 36.75 9.23
  Q 30.59 7.27 23.24 8.77
  C 17.24 10.00 13.71 18.48 20.92 21.11
  Z
  M 29.90 41.66
  C 23.23 40.70 19.43 36.93 14.30 32.24
  C 12.79 30.87 8.96 28.87 9.08 32.73
  C 9.23 37.61 17.62 39.80 17.79 46.03
  A 1.00 1.00 0.0 0 0 18.78 47.00
  L 35.26 47.13
  Q 37.59 47.15 35.99 45.45
  C 34.18 43.52 32.74 42.08 29.90 41.66
  Z
  M 30.3204 38.2762
  A 3.22 2.83 41.8 0 0 29.8063 34.0203
  A 3.22 2.83 41.8 0 0 25.5196 33.9838
  A 3.22 2.83 41.8 0 0 26.0337 38.2397
  A 3.22 2.83 41.8 0 0 30.3204 38.2762
  Z"
/>
<path fill="#ffffff" d="
  M 20.92 21.11
  C 13.71 18.48 17.24 10.00 23.24 8.77
  Q 30.59 7.27 36.75 9.23
  C 41.19 10.65 42.90 15.36 40.84 19.34
  C 38.83 23.22 33.17 23.27 29.36 22.87
  A 1.00 0.98 23.1 0 0 28.49 23.21
  L 24.92 27.37
  Q 23.76 28.74 23.21 27.03
  L 21.53 21.75
  A 1.01 1.00 -88.8 0 0 20.92 21.11
  Z"
/>
<path fill="#1063f7" d="
  M 37.00 24.96
  Q 37.66 25.32 37.83 26.09
  A 1.00 0.99 -88.5 0 0 38.53 26.83
  Q 41.75 27.74 45.01 28.22
  Q 46.03 28.37 47.91 30.00
  Q 49.31 31.20 49.56 29.37
  L 50.00 26.06
  L 50.00 55.00
  L 3.11 54.95
  Q -0.53 47.14 1.69 39.68
  Q 2.82 35.90 7.25 35.71
  C 11.67 39.78 14.86 41.88 14.79 48.52
  A 1.01 1.00 2.8 0 0 15.71 49.53
  Q 26.99 50.42 38.22 49.39
  A 1.00 0.99 -8.7 0 0 39.11 48.19
  Q 37.95 42.71 33.19 40.98
  A 0.99 0.99 0.0 0 1 32.64 39.59
  Q 32.93 39.02 33.18 38.44
  C 34.98 34.24 30.23 30.88 26.51 30.74
  Q 24.20 30.65 25.84 29.03
  L 29.38 25.53
  A 0.95 0.95 0.0 0 1 30.04 25.24
  L 37.00 24.96
  Z"
/>
<path fill="#ee8c81" d="
  M 14.30 32.24
  C 19.43 36.93 23.23 40.70 29.90 41.66
  C 32.74 42.08 34.18 43.52 35.99 45.45
  Q 37.59 47.15 35.26 47.13
  L 18.78 47.00
  A 1.00 1.00 0.0 0 1 17.79 46.03
  C 17.62 39.80 9.23 37.61 9.08 32.73
  C 8.96 28.87 12.79 30.87 14.30 32.24
  Z"
/>
<ellipse fill="#ffffff" cx="0.00" cy="0.00" transform="translate(27.92,36.13) rotate(41.8)" rx="3.22" ry="2.83"/>
</svg>
